<mxfile host="app.diagrams.net" modified="2024-05-24T13:47:38.085Z" agent="Mozilla/5.0 (Windows NT 10.0; Win64; x64) AppleWebKit/537.36 (KHTML, like Gecko) Chrome/120.0.6099.869 YaBrowser/24.1.3.869 (corp) Yowser/2.5 Safari/537.36" version="24.4.8" etag="6sih5GSBnMdaVkfR8cBo" type="github">
  <diagram name="Страница — 1" id="HnUSNsZUsA-lmsXQ9xbi">
    <mxGraphModel>
      <root>
        <mxCell id="0" />
        <mxCell id="1" parent="0" />
      </root>
    </mxGraphModel>
  </diagram>
</mxfile>
